<?xml version="1.0" standalone="no"?>
<!DOCTYPE svg PUBLIC "-//W3C//DTD SVG 20010904//EN"
 "http://www.w3.org/TR/2001/REC-SVG-20010904/DTD/svg10.dtd">
<svg version="1.0" xmlns="http://www.w3.org/2000/svg"
 width="595.000000pt" height="595.000000pt" viewBox="0 0 595.000000 595.000000"
 preserveAspectRatio="xMidYMid meet">
<metadata>
Created by potrace 1.14, written by Peter Selinger 2001-2017
</metadata>
<g transform="translate(0.000000,595.000000) scale(0.100000,-0.100000)"
fill="#000000" stroke="none">
<path d="M2876 5733 c-2 -2 -14 -6 -27 -8 -63 -12 -78 -17 -97 -35 -22 -21
-30 -23 -157 -40 -65 -8 -206 -36 -285 -54 -195 -47 -475 -161 -675 -275 -94
-54 -215 -133 -215 -142 0 -5 -6 -9 -12 -9 -17 0 -194 -141 -190 -151 1 -5 -4
-9 -11 -9 -13 0 -159 -139 -244 -232 -91 -101 -253 -317 -253 -337 0 -5 -4
-11 -9 -13 -10 -4 -138 -226 -143 -248 -2 -8 -6 -17 -10 -20 -13 -10 -91 -198
-133 -320 -100 -293 -140 -547 -140 -875 1 -264 22 -438 81 -670 78 -306 256
-684 427 -910 149 -195 272 -330 419 -457 34 -29 77 -66 95 -83 19 -17 49 -62
67 -103 65 -142 125 -181 278 -182 91 0 101 -2 185 -41 48 -22 102 -46 118
-54 47 -21 293 -102 362 -120 54 -13 92 -21 188 -40 147 -29 282 -40 490 -39
278 0 510 31 735 99 47 14 92 28 100 30 8 2 16 4 18 5 1 2 5 3 10 4 30 7 121
41 137 52 11 8 25 14 32 14 7 0 35 10 61 23 34 17 56 21 75 16 29 -8 67 0 108
21 27 14 76 67 84 90 5 14 30 32 95 67 14 8 42 27 62 44 20 16 39 29 43 29 5
0 114 83 170 130 236 200 435 433 594 697 66 110 171 322 171 345 0 8 4 18 8
23 27 30 139 396 146 476 2 20 5 40 8 45 3 5 9 34 13 64 4 30 9 62 10 71 19
99 26 456 12 609 -8 94 -10 111 -43 300 -10 57 -76 292 -94 335 -4 11 -27 70
-50 130 -63 162 -218 454 -233 438 -4 -3 -7 2 -7 13 0 34 -229 329 -323 416
-19 17 -19 20 0 123 10 60 6 120 -11 153 -8 16 -53 60 -98 98 -46 37 -89 74
-96 81 -12 12 -26 15 -72 17 -57 2 -143 -18 -176 -40 -42 -29 -36 -30 -149 37
-52 31 -170 90 -285 143 -131 60 -440 152 -577 171 -12 2 -34 6 -50 9 -15 3
-48 8 -73 11 -25 2 -70 7 -100 11 -30 3 -84 7 -119 9 -35 1 -66 6 -70 11 -17
25 -67 45 -116 48 -30 2 -56 1 -59 -1z"/>
</g>
</svg>
